<svg width="800" height="800" viewBox="0 0 800 800" fill="none" xmlns="http://www.w3.org/2000/svg">
<path d="M633.333 666.667H666.667M533.333 666.667H466.667V566.667M566.667 566.667H666.667V466.667H633.333M466.667 466.667H533.333M133.333 566.657C133.333 535.597 133.333 520.063 138.408 507.813C145.174 491.477 158.144 478.507 174.479 471.74C186.731 466.667 202.262 466.667 233.325 466.667C264.388 466.667 279.936 466.667 292.187 471.74C308.523 478.507 321.489 491.477 328.255 507.813C333.33 520.063 333.33 535.603 333.33 566.667C333.33 597.73 333.33 613.26 328.255 625.513C321.489 641.847 308.523 654.823 292.187 661.59C279.936 666.663 264.387 666.663 233.325 666.663C202.262 666.663 186.731 666.663 174.479 661.59C158.144 654.823 145.174 641.857 138.408 625.52C133.333 613.27 133.333 597.72 133.333 566.657ZM466.667 233.325C466.667 202.262 466.667 186.731 471.74 174.479C478.507 158.144 491.477 145.174 507.813 138.408C520.063 133.333 535.597 133.333 566.657 133.333C597.72 133.333 613.27 133.333 625.52 138.408C641.857 145.174 654.823 158.144 661.59 174.479C666.663 186.731 666.663 202.271 666.663 233.333C666.663 264.396 666.663 279.928 661.59 292.179C654.823 308.514 641.857 321.489 625.52 328.255C613.27 333.33 597.72 333.33 566.657 333.33C535.597 333.33 520.063 333.33 507.813 328.255C491.477 321.489 478.507 308.523 471.74 292.187C466.667 279.936 466.667 264.388 466.667 233.325ZM133.333 233.325C133.333 202.262 133.333 186.731 138.408 174.479C145.174 158.144 158.144 145.174 174.479 138.408C186.731 133.333 202.262 133.333 233.325 133.333C264.388 133.333 279.936 133.333 292.187 138.408C308.523 145.174 321.489 158.144 328.255 174.479C333.33 186.731 333.33 202.271 333.33 233.333C333.33 264.396 333.33 279.928 328.255 292.179C321.489 308.514 308.523 321.489 292.187 328.255C279.936 333.33 264.387 333.33 233.325 333.33C202.262 333.33 186.731 333.33 174.479 328.255C158.144 321.489 145.174 308.523 138.408 292.187C133.333 279.936 133.333 264.388 133.333 233.325Z" stroke="white" stroke-width="66.6667" stroke-linecap="round" stroke-linejoin="round"/>
</svg>
